# xmcd CD database file
# Copyright (C) 1997 Ti Kan
# 
# Track frame offsets:
#     150
#     14617
#     32352
#     47765
#     62540
#     74762
#     94862
#     104650
#     115262
#     127365
#     144577
#     156427
#     180352
#     207877
#     223702
#     234277
#     261352
# 
# Disc length: 3750 seconds
# 
# Revision: 1
# Processed by: cddbd v1.4b41PL1 Copyright (c) Steve Scherf et al.
# Submitted via: DiscPlay 4.0.4
# 
DISCID=020ea411
DTITLE=Glenn Campbell - Glenn Campbell
DYEAR=1900
DGENRE=
TTITLE0=Rhinestone Cowboy
TTITLE1=Southern Nights
TTITLE2=I'm So Lonesome I Could Cry
TTITLE3=Crying
TTITLE4=By the Time I get to Phoenix
TTITLE5=Amazing Grace
TTITLE6=Gentle on my Mind
TTITLE7=Dreams of the Everyday Housewife
TTITLE8=Heartache Number Three
TTITLE9=Please Come to Boston
TTITLE10=It's Only Make Believe
TTITLE11=Bluegrass Medley
TTITLE12=Milk Cow Blues
TTITLE13=Rollin' (In my Sweet Baby's Arms)
TTITLE14=Try a Little Kindness
TTITLE15=Mull of Kintyre
TTITLE16=Medley:  Wichita Lineman, Galveston, Country Boy
EXTD=
EXTT0=
EXTT1=
EXTT2=
EXTT3=
EXTT4=
EXTT5=
EXTT6=
EXTT7=
EXTT8=
EXTT9=
EXTT10=
EXTT11=
EXTT12=
EXTT13=
EXTT14=
EXTT15=
EXTT16=
PLAYORDER=
